<svg xmlns="http://www.w3.org/2000/svg" viewBox="0 0 960 540" width="100%" height="100%">
  <defs>
    <marker id="arrowhead" markerWidth="10" markerHeight="7" refX="9" refY="3.5" orient="auto">
      <polygon points="0 0, 10 3.5, 0 7" fill="#64748b" />
    </marker>
    <marker id="arrowhead-danger" markerWidth="10" markerHeight="7" refX="9" refY="3.5" orient="auto">
      <polygon points="0 0, 10 3.5, 0 7" fill="#dc2626" />
    </marker>
  </defs>
  <style>
    text {
      font-family: 'Segoe UI', system-ui, -apple-system, sans-serif;
      font-size: 14px;
      fill: #1a202c;
    }
    .title { font-weight: bold; font-size: 16px; }
    .small { font-size: 12px; }
    .subtitle { font-size: 13px; fill: #64748b; }
    .mono { font-family: 'Consolas', 'DejaVu Sans Mono', monospace; font-size: 12px; }

    .cluster { fill: #f8fafc; stroke: #94a3b8; stroke-width: 1.5; stroke-dasharray: 6 3; }
    .service { fill: #e6f4f3; stroke: #0f766e; stroke-width: 1.5; }
    .storage { fill: #dbeafe; stroke: #2563eb; stroke-width: 1.5; }
    .event   { fill: #fef9c3;   stroke: #ca8a04;   stroke-width: 1.5; }
    .success { fill: #dcfce7; stroke: #16a34a; stroke-width: 1.5; }
    .danger  { fill: #fee2e2;  stroke: #dc2626;  stroke-width: 1.5; }
    .warning { fill: #fff7ed; stroke: #ea580c; stroke-width: 1.5; }
    .info    { fill: #eff6ff;    stroke: #3b82f6;    stroke-width: 1.5; }
    .highlight { fill: #f5f3ff; stroke: #7c3aed; stroke-width: 1.5; }
    .legacy  { fill: #f3f4f6;  stroke: #9ca3af;  stroke-width: 1.5; }
    .note    { fill: #ffffff;     stroke: #cbd5e1;   stroke-width: 1.5; }
    .step    { fill: #ffffff;     stroke: #94a3b8;         stroke-width: 1.5; }

    .arrow {
      stroke: #64748b; stroke-width: 1.5; fill: none;
      marker-end: url(#arrowhead);
    }
    .arrow-dashed {
      stroke: #64748b; stroke-width: 1.5; fill: none;
      stroke-dasharray: 6 3; marker-end: url(#arrowhead);
    }
    .arrow-danger {
      stroke: #dc2626; stroke-width: 2; fill: none;
      marker-end: url(#arrowhead-danger);
    }
    .arrow-bg { fill: #ffffff; opacity: 0.9; }
    .lifeline {
      stroke: #94a3b8; stroke-width: 1;
      stroke-dasharray: 4 3; fill: none;
    }
  </style>
  <text x="480" y="25" text-anchor="middle" class="title">Durable Broker (Kafka) vs Ephemeral Broker (RabbitMQ)</text>
  <rect x="30" y="55" width="430" height="250" rx="12" class="cluster" />
  <text x="245.0" y="83" text-anchor="middle" class="title">Durable Broker (Kafka)</text>
  <rect x="60" y="100" width="100" height="40" rx="8" class="service" />
  <text x="110.0" y="125.0" text-anchor="middle" class="title">Producer</text>
  <path d="M 160 120 L 200 120" class="arrow" />
  <rect x="200" y="90" width="120" height="60" rx="8" class="storage" />
  <text x="260.0" y="116.0" text-anchor="middle" class="title">Event Log</text>
  <text x="260.0" y="134.0" text-anchor="middle" class="subtitle">(append-only)</text>
  <path d="M 320 110 L 370 90" class="arrow" />
  <path d="M 320 130 L 370 150" class="arrow" />
  <rect x="370" y="70" width="70" height="40" rx="8" class="info" />
  <text x="405.0" y="95.0" text-anchor="middle" class="title">Con A</text>
  <rect x="370" y="130" width="70" height="40" rx="8" class="info" />
  <text x="405.0" y="155.0" text-anchor="middle" class="title">Con B</text>
  <rect x="200" y="200" width="120" height="25" rx="5" class="success" />
  <text x="260" y="217" text-anchor="middle" class="small">Retained!</text>
  <text x="245" y="270" text-anchor="middle" class="subtitle">Message LƯU LẠI. Replay bất kỳ lúc nào.</text>
  <text x="245" y="290" text-anchor="middle" class="subtitle">Consumer mới đọc từ đầu được.</text>
  <rect x="500" y="55" width="430" height="250" rx="12" class="cluster" />
  <text x="715.0" y="83" text-anchor="middle" class="title">Ephemeral Broker (RabbitMQ)</text>
  <rect x="530" y="100" width="100" height="40" rx="8" class="service" />
  <text x="580.0" y="125.0" text-anchor="middle" class="title">Producer</text>
  <path d="M 630 120 L 680 120" class="arrow" />
  <rect x="680" y="90" width="100" height="60" rx="8" class="event" />
  <text x="730.0" y="125.0" text-anchor="middle" class="title">Queue</text>
  <path d="M 780 120 L 830 120" class="arrow" />
  <rect x="830" y="100" width="80" height="40" rx="8" class="info" />
  <text x="870.0" y="125.0" text-anchor="middle" class="title">Consumer</text>
  <rect x="680" y="200" width="100" height="25" rx="5" class="danger" />
  <text x="730" y="217" text-anchor="middle" class="small">Deleted!</text>
  <text x="715" y="270" text-anchor="middle" class="subtitle">Message BỊ XÓA sau khi consumer ACK.</text>
  <text x="715" y="290" text-anchor="middle" class="subtitle">Không replay được.</text>
  <rect x="30" y="340" width="900" height="160" rx="10" class="note" />
  <text x="50" y="365" class="title">LMS chọn Kafka vì:</text>
  <text x="50" y="395" class="subtitle">1. Replay: Khi Judge bị lỗi, replay messages từ offset cũ</text>
  <text x="50" y="420" class="subtitle">2. Multi-consumer: Judge + Leaderboard + Notification đọc cùng topic</text>
  <text x="50" y="445" class="subtitle">3. Event log: Audit trail cho moi submission</text>
  <text x="50" y="470" class="subtitle">4. Throughput: Kafka xử lý 100K+ msg/s, phù hợp contest mode</text>
</svg>