<svg xmlns="http://www.w3.org/2000/svg" viewBox="0 0 960 540" width="100%" height="100%">
  <defs>
    <marker id="arrowhead" markerWidth="10" markerHeight="7" refX="9" refY="3.5" orient="auto">
      <polygon points="0 0, 10 3.5, 0 7" fill="#64748b" />
    </marker>
      <filter id="shadow" x="-4%" y="-4%" width="108%" height="116%">
      <feDropShadow dx="1" dy="2" stdDeviation="2.5" flood-color="#0000001a"/>
    </filter>
    <linearGradient id="grad-service" x1="0" y1="0" x2="0" y2="1">
      <stop offset="0%" stop-color="#e6f4f3"/>
      <stop offset="100%" stop-color="#ccebe8"/>
    </linearGradient>
    <linearGradient id="grad-storage" x1="0" y1="0" x2="0" y2="1">
      <stop offset="0%" stop-color="#dbeafe"/>
      <stop offset="100%" stop-color="#bfdbfe"/>
    </linearGradient>
    <linearGradient id="grad-event" x1="0" y1="0" x2="0" y2="1">
      <stop offset="0%" stop-color="#fef9c3"/>
      <stop offset="100%" stop-color="#fef08a"/>
    </linearGradient>
    <linearGradient id="grad-success" x1="0" y1="0" x2="0" y2="1">
      <stop offset="0%" stop-color="#dcfce7"/>
      <stop offset="100%" stop-color="#bbf7d0"/>
    </linearGradient>
    <linearGradient id="grad-danger" x1="0" y1="0" x2="0" y2="1">
      <stop offset="0%" stop-color="#fee2e2"/>
      <stop offset="100%" stop-color="#fecaca"/>
    </linearGradient>
    <linearGradient id="grad-warning" x1="0" y1="0" x2="0" y2="1">
      <stop offset="0%" stop-color="#fff7ed"/>
      <stop offset="100%" stop-color="#ffedd5"/>
    </linearGradient>
    <linearGradient id="grad-info" x1="0" y1="0" x2="0" y2="1">
      <stop offset="0%" stop-color="#eff6ff"/>
      <stop offset="100%" stop-color="#dbeafe"/>
    </linearGradient>
    <linearGradient id="grad-highlight" x1="0" y1="0" x2="0" y2="1">
      <stop offset="0%" stop-color="#f5f3ff"/>
      <stop offset="100%" stop-color="#ede9fe"/>
    </linearGradient>
    <linearGradient id="grad-legacy" x1="0" y1="0" x2="0" y2="1">
      <stop offset="0%" stop-color="#f3f4f6"/>
      <stop offset="100%" stop-color="#e5e7eb"/>
    </linearGradient>
  </defs>
  <style>
    text { font-family: 'Segoe UI', system-ui, -apple-system, sans-serif; font-size: 14px; fill: #1a202c; }
    .title { font-weight: 600; font-size: 16px; }
    .subtitle { font-size: 13px; fill: #64748b; }
    .cluster { fill: #f8fafc; stroke: #94a3b8; stroke-width: 1.5; stroke-dasharray: 6 3; }
    .topic { fill: #FFF9C4; stroke: #ca8a04; stroke-width: 1.5; }
    .producer { fill: #E3F2FD; stroke: #2563eb; stroke-width: 1.5; }
    .consumer-group { fill: #E8F5E9; stroke: #16a34a; stroke-width: 1.5; }
    .partition { fill: #ffffff; stroke: #94a3b8; stroke-width: 1.5; }
    .consumer { fill: #ffffff; stroke: #16a34a; stroke-width: 1.5; }
    .arrow { stroke: #64748b; stroke-width: 1.5; fill: none; marker-end: url(#arrowhead); }
  </style>
  <rect x="200" y="20" width="560" height="250" rx="16" class="cluster" />
  <text x="480" y="50" text-anchor="middle" class="title">Kafka Cluster</text>
  <rect x="240" y="65" width="480" height="185" rx="12" class="topic" />
  <text x="480" y="90" text-anchor="middle" class="title">Topic: "submissions"</text>
  <rect x="280" y="110" width="140" height="120" rx="8" class="partition" />
  <text x="350" y="140" text-anchor="middle" class="title">Partition 0</text>
  <text x="350" y="165" text-anchor="middle" class="subtitle">msg1, msg4, msg7…</text>
  <text x="350" y="210" text-anchor="middle" class="subtitle">offset →</text>
  <rect x="435" y="110" width="140" height="120" rx="8" class="partition" />
  <text x="505" y="140" text-anchor="middle" class="title">Partition 1</text>
  <text x="505" y="165" text-anchor="middle" class="subtitle">msg2, msg5, msg8…</text>
  <text x="505" y="210" text-anchor="middle" class="subtitle">offset →</text>
  <rect x="590" y="110" width="140" height="120" rx="8" class="partition" />
  <text x="660" y="140" text-anchor="middle" class="title">Partition 2</text>
  <text x="660" y="165" text-anchor="middle" class="subtitle">msg3, msg6, msg9…</text>
  <text x="660" y="210" text-anchor="middle" class="subtitle">offset →</text>
  <rect x="20" y="120" width="140" height="70" rx="12" class="producer" />
  <text x="90" y="150" text-anchor="middle" class="title">Producer</text>
  <text x="90" y="170" text-anchor="middle" class="subtitle">(Core Service)</text>
  <path d="M 160 155 L 235 155" class="arrow" />
  <text x="197" y="145" text-anchor="middle" font-size="11" fill="#64748b">key: userId</text>
  <rect x="200" y="310" width="560" height="210" rx="16" class="consumer-group" />
  <text x="480" y="340" text-anchor="middle" class="title">Consumer Group: "judge-group"</text>
  <rect x="260" y="360" width="150" height="70" rx="8" class="consumer" />
  <text x="335" y="390" text-anchor="middle" class="title">Consumer 1</text>
  <text x="335" y="410" text-anchor="middle" class="subtitle">(Judge Instance 1)</text>
  <rect x="435" y="360" width="150" height="70" rx="8" class="consumer" />
  <text x="510" y="390" text-anchor="middle" class="title">Consumer 2</text>
  <text x="510" y="410" text-anchor="middle" class="subtitle">(Judge Instance 2)</text>
  <rect x="610" y="360" width="150" height="70" rx="8" class="consumer" />
  <text x="685" y="390" text-anchor="middle" class="title">Consumer 3</text>
  <text x="685" y="410" text-anchor="middle" class="subtitle">(Judge Instance 3)</text>
  <path d="M 350 230 L 335 355" class="arrow" />
  <path d="M 505 230 L 510 355" class="arrow" />
  <path d="M 660 230 L 685 355" class="arrow" />
</svg>