<svg xmlns="http://www.w3.org/2000/svg" viewBox="0 0 960 540" width="100%" height="100%">
  <defs>
    <marker id="arrowhead" markerWidth="10" markerHeight="7" refX="9" refY="3.5" orient="auto">
      <polygon points="0 0, 10 3.5, 0 7" fill="#64748b" />
    </marker>
  </defs>
  <style>
    text { font-family: 'Segoe UI', system-ui, -apple-system, sans-serif; font-size: 14px; fill: #1a202c; }
    .title { font-weight: bold; font-size: 16px; }
    .subtitle { font-size: 13px; fill: #64748b; }
    .cluster { fill: #f8fafc; stroke: #94a3b8; stroke-width: 1.5; stroke-dasharray: 6 3; }
    .v1 { fill: #f1f5f9; stroke: #94a3b8; stroke-width: 1.5; }
    .v2 { fill: #dcfce7; stroke: #16a34a; stroke-width: 1.5; }
    .updating { fill: #fef08a; stroke: #ca8a04; stroke-width: 1.5; stroke-dasharray: 4 2; }
    
    .cp { fill: #E3F2FD; stroke: #2563eb; stroke-width: 1.5; }
    .node1 { fill: #E8F5E9; stroke: #16a34a; stroke-width: 1.5; }
    .node2 { fill: #FFF9C4; stroke: #ca8a04; stroke-width: 1.5; }
    
    .infra { fill: #E3F2FD; stroke: #2563eb; stroke-width: 1.5; }
    .platform { fill: #FFF9C4; stroke: #ca8a04; stroke-width: 1.5; }
    .app { fill: #E8F5E9; stroke: #16a34a; stroke-width: 1.5; }
    .fe { fill: #F3E5F5; stroke: #9c27b0; stroke-width: 1.5; }
    
    .service { fill: #ffffff; stroke: #94a3b8; stroke-width: 1.5; }
    
    .arrow { stroke: #64748b; stroke-width: 1.5; fill: none; marker-end: url(#arrowhead); }
  </style>
  <rect x="50" y="100" width="260" height="300" rx="16" class="cluster" />
  <text x="180" y="130" text-anchor="middle" class="title">Trạng thái ban đầu</text>
  <rect x="90" y="160" width="180" height="60" rx="8" class="v1" />
  <text x="180" y="185" text-anchor="middle" class="title">Instance 1</text>
  <text x="180" y="205" text-anchor="middle" class="subtitle">v1.0</text>
  <rect x="90" y="240" width="180" height="60" rx="8" class="v1" />
  <text x="180" y="265" text-anchor="middle" class="title">Instance 2</text>
  <text x="180" y="285" text-anchor="middle" class="subtitle">v1.0</text>
  <rect x="90" y="320" width="180" height="60" rx="8" class="v1" />
  <text x="180" y="345" text-anchor="middle" class="title">Instance 3</text>
  <text x="180" y="365" text-anchor="middle" class="subtitle">v1.0</text>
  <rect x="350" y="100" width="260" height="300" rx="16" class="cluster" />
  <text x="480" y="130" text-anchor="middle" class="title">Đang update</text>
  <rect x="390" y="160" width="180" height="60" rx="8" class="v2" />
  <text x="480" y="185" text-anchor="middle" class="title">Instance 1</text>
  <text x="480" y="205" text-anchor="middle" class="subtitle">✅ v2.0</text>
  <rect x="390" y="240" width="180" height="60" rx="8" class="updating" />
  <text x="480" y="265" text-anchor="middle" class="title">Instance 2</text>
  <text x="480" y="285" text-anchor="middle" class="subtitle">🔄 updating...</text>
  <rect x="390" y="320" width="180" height="60" rx="8" class="v1" />
  <text x="480" y="345" text-anchor="middle" class="title">Instance 3</text>
  <text x="480" y="365" text-anchor="middle" class="subtitle">v1.0</text>
  <rect x="650" y="100" width="260" height="300" rx="16" class="cluster" />
  <text x="780" y="130" text-anchor="middle" class="title">Hoàn thành</text>
  <rect x="690" y="160" width="180" height="60" rx="8" class="v2" />
  <text x="780" y="185" text-anchor="middle" class="title">Instance 1</text>
  <text x="780" y="205" text-anchor="middle" class="subtitle">v2.0</text>
  <rect x="690" y="240" width="180" height="60" rx="8" class="v2" />
  <text x="780" y="265" text-anchor="middle" class="title">Instance 2</text>
  <text x="780" y="285" text-anchor="middle" class="subtitle">v2.0</text>
  <rect x="690" y="320" width="180" height="60" rx="8" class="v2" />
  <text x="780" y="345" text-anchor="middle" class="title">Instance 3</text>
  <text x="780" y="365" text-anchor="middle" class="subtitle">v2.0</text>
  <path d="M 310 250 L 350 250" class="arrow" />
  <path d="M 610 250 L 650 250" class="arrow" />
</svg>