<svg xmlns="http://www.w3.org/2000/svg" viewBox="0 0 960 540" width="100%" height="100%">
  <defs>
    <marker id="arrowhead" markerWidth="10" markerHeight="7" refX="9" refY="3.5" orient="auto">
      <polygon points="0 0, 10 3.5, 0 7" fill="#64748b" />
    </marker>
    <marker id="arrowhead-danger" markerWidth="10" markerHeight="7" refX="9" refY="3.5" orient="auto">
      <polygon points="0 0, 10 3.5, 0 7" fill="#dc2626" />
    </marker>
    <filter id="shadow" x="-4%" y="-4%" width="108%" height="116%">
      <feDropShadow dx="1" dy="2" stdDeviation="2.5" flood-color="#0000001a"/>
    </filter>
    <linearGradient id="grad-service" x1="0" y1="0" x2="0" y2="1">
      <stop offset="0%" stop-color="#e6f4f3"/>
      <stop offset="100%" stop-color="#ccebe8"/>
    </linearGradient>
    <linearGradient id="grad-storage" x1="0" y1="0" x2="0" y2="1">
      <stop offset="0%" stop-color="#dbeafe"/>
      <stop offset="100%" stop-color="#bfdbfe"/>
    </linearGradient>
    <linearGradient id="grad-event" x1="0" y1="0" x2="0" y2="1">
      <stop offset="0%" stop-color="#fef9c3"/>
      <stop offset="100%" stop-color="#fef08a"/>
    </linearGradient>
    <linearGradient id="grad-success" x1="0" y1="0" x2="0" y2="1">
      <stop offset="0%" stop-color="#dcfce7"/>
      <stop offset="100%" stop-color="#bbf7d0"/>
    </linearGradient>
    <linearGradient id="grad-danger" x1="0" y1="0" x2="0" y2="1">
      <stop offset="0%" stop-color="#fee2e2"/>
      <stop offset="100%" stop-color="#fecaca"/>
    </linearGradient>
    <linearGradient id="grad-warning" x1="0" y1="0" x2="0" y2="1">
      <stop offset="0%" stop-color="#fff7ed"/>
      <stop offset="100%" stop-color="#ffedd5"/>
    </linearGradient>
    <linearGradient id="grad-info" x1="0" y1="0" x2="0" y2="1">
      <stop offset="0%" stop-color="#eff6ff"/>
      <stop offset="100%" stop-color="#dbeafe"/>
    </linearGradient>
    <linearGradient id="grad-highlight" x1="0" y1="0" x2="0" y2="1">
      <stop offset="0%" stop-color="#f5f3ff"/>
      <stop offset="100%" stop-color="#ede9fe"/>
    </linearGradient>
    <linearGradient id="grad-legacy" x1="0" y1="0" x2="0" y2="1">
      <stop offset="0%" stop-color="#f3f4f6"/>
      <stop offset="100%" stop-color="#e5e7eb"/>
    </linearGradient>
  </defs>
  <style>
    text {
      font-family: 'Segoe UI', system-ui, -apple-system, sans-serif;
      font-size: 14px;
      fill: #1a202c;
    }
    .title { font-weight: 600; font-size: 16px; }
    .small { font-size: 12px; }
    .subtitle { font-size: 13px; fill: #64748b; }
    .mono { font-family: 'Consolas', 'DejaVu Sans Mono', monospace; font-size: 12px; }

    .cluster { fill: #f8fafc; stroke: #94a3b8; stroke-width: 1.5; stroke-dasharray: 6 3; }
    .service { fill: url(#grad-service); stroke: #0f766e; stroke-width: 2.0; filter: url(#shadow); }
    .storage { fill: url(#grad-storage); stroke: #2563eb; stroke-width: 2.0; filter: url(#shadow); }
    .event   { fill: url(#grad-event);   stroke: #ca8a04;   stroke-width: 2.0; filter: url(#shadow); }
    .success { fill: url(#grad-success); stroke: #16a34a; stroke-width: 2.0; filter: url(#shadow); }
    .danger  { fill: url(#grad-danger);  stroke: #dc2626;  stroke-width: 2.0; filter: url(#shadow); }
    .warning { fill: url(#grad-warning); stroke: #ea580c; stroke-width: 2.0; filter: url(#shadow); }
    .info    { fill: url(#grad-info);    stroke: #3b82f6;    stroke-width: 2.0; filter: url(#shadow); }
    .highlight { fill: url(#grad-highlight); stroke: #7c3aed; stroke-width: 2.0; filter: url(#shadow); }
    .legacy  { fill: url(#grad-legacy);  stroke: #9ca3af;  stroke-width: 1.5; filter: url(#shadow); }
    .note    { fill: #ffffff;    stroke: #cbd5e1;   stroke-width: 1.5; filter: url(#shadow); }
    .step    { fill: #ffffff;    stroke: #94a3b8;         stroke-width: 1.5; filter: url(#shadow); }

    .service-flat { fill: #e6f4f3; stroke: #0f766e; stroke-width: 1.5; }
    .storage-flat { fill: #dbeafe; stroke: #2563eb; stroke-width: 1.5; }
    .event-flat   { fill: #fef9c3;   stroke: #ca8a04;   stroke-width: 1.5; }

    .arrow {
      stroke: #64748b; stroke-width: 1.5; fill: none;
      marker-end: url(#arrowhead);
    }
    .arrow-dashed {
      stroke: #64748b; stroke-width: 1.5; fill: none;
      stroke-dasharray: 6 3; marker-end: url(#arrowhead);
    }
    .arrow-danger {
      stroke: #dc2626; stroke-width: 2.0; fill: none;
      marker-end: url(#arrowhead-danger);
    }
    .arrow-bg { fill: #ffffff; opacity: 0.92; }
    .lifeline {
      stroke: #94a3b8; stroke-width: 1.0;
      stroke-dasharray: 4 3; fill: none;
    }
    .separator {
      stroke: #cbd5e1; stroke-width: 1.0;
    }
  </style>
  <text x="480" y="20" text-anchor="middle" class="title">CI/CD Pipeline</text>
  <rect x="30" y="55" width="560" height="200" rx="12" class="cluster" />
  <text x="310.0" y="83" text-anchor="middle" class="title">Continuous Integration</text>
  <line x1="44" y1="93" x2="576" y2="93" class="separator" />
  <rect x="60" y="100" width="160" height="56" rx="12" class="info" />
  <text x="140.0" y="133.0" text-anchor="middle" class="title">Git Push</text>
  <path d="M 180 127 L 195 127" class="arrow" />
  <rect x="195" y="100" width="160" height="56" rx="12" class="service" />
  <text x="275.0" y="133.0" text-anchor="middle" class="title">Build</text>
  <path d="M 315 127 L 330 127" class="arrow" />
  <rect x="330" y="100" width="160" height="56" rx="12" class="event" />
  <text x="410.0" y="133.0" text-anchor="middle" class="title">Unit Tests</text>
  <path d="M 450 127 L 465 127" class="arrow" />
  <rect x="465" y="100" width="160" height="56" rx="12" class="highlight" />
  <text x="545.0" y="133.0" text-anchor="middle" class="title">Integration
Tests</text>
  <text x="60" y="190" class="subtitle">(Maven/Gradle)</text>
  <text x="195" y="190" class="subtitle">(JUnit)</text>
  <text x="330" y="190" class="subtitle">(Testcontainers)</text>
  <rect x="30" y="280" width="560" height="180" rx="12" class="cluster" />
  <text x="310.0" y="308" text-anchor="middle" class="title">Continuous Delivery</text>
  <line x1="44" y1="318" x2="576" y2="318" class="separator" />
  <rect x="60" y="320" width="160" height="56" rx="12" class="danger" />
  <text x="140.0" y="353.0" text-anchor="middle" class="title">Security Scan</text>
  <path d="M 180 347 L 195 347" class="arrow" />
  <rect x="195" y="320" width="160" height="56" rx="12" class="service" />
  <text x="275.0" y="353.0" text-anchor="middle" class="title">Docker Image</text>
  <path d="M 315 347 L 330 347" class="arrow" />
  <rect x="330" y="320" width="160" height="56" rx="12" class="event" />
  <text x="410.0" y="353.0" text-anchor="middle" class="title">Push Registry</text>
  <path d="M 450 347 L 465 347" class="arrow" />
  <rect x="465" y="320" width="160" height="56" rx="12" class="success" />
  <text x="545.0" y="353.0" text-anchor="middle" class="title">Deploy Staging</text>
  <text x="60" y="410" class="subtitle">(SAST/deps)</text>
  <text x="195" y="410" class="subtitle">(Dockerfile)</text>
  <text x="330" y="410" class="subtitle">(Harbor/ECR)</text>
  <text x="465" y="410" class="subtitle">(auto)</text>
  <path d="M 525 155 L 525 280" class="arrow" />
  <rect x="620" y="55" width="310" height="400" rx="10" class="note" />
  <text x="775" y="85" text-anchor="middle" class="title">Lợi ích</text>
  <text x="640" y="115" class="subtitle">Moi commit -> auto test</text>
  <text x="640" y="143" class="subtitle">Phat hien loi som</text>
  <text x="640" y="171" class="subtitle">Security scan từ dong</text>
  <text x="640" y="199" class="subtitle">Docker image versioned</text>
  <text x="640" y="227" class="subtitle">Deploy 1 click</text>
  <text x="640" y="255" class="subtitle">Rollback = deploy version cu</text>
  <text x="640" y="283" class="subtitle"></text>
  <text x="640" y="311" class="subtitle">KBLab target:</text>
  <text x="640" y="339" class="subtitle">GitLab CI + Docker</text>
  <text x="640" y="367" class="subtitle">+ container registry</text>
  <text x="640" y="395" class="subtitle">+ staging/smoke tests</text>
</svg>