<svg xmlns="http://www.w3.org/2000/svg" viewBox="0 0 960 540" width="100%" height="100%">
  <defs>
    <marker id="arrowhead" markerWidth="10" markerHeight="7" refX="9" refY="3.5" orient="auto">
      <polygon points="0 0, 10 3.5, 0 7" fill="#64748b" />
    </marker>
  </defs>
  <style>
    text { font-family: 'Segoe UI', system-ui, -apple-system, sans-serif; font-size: 14px; fill: #1a202c; }
    .title { font-weight: bold; font-size: 16px; }
    .subtitle { font-size: 13px; fill: #64748b; }
    .cluster { fill: #f8fafc; stroke: #94a3b8; stroke-width: 1.5; stroke-dasharray: 6 3; }
    .v1 { fill: #f1f5f9; stroke: #94a3b8; stroke-width: 1.5; }
    .v2 { fill: #dcfce7; stroke: #16a34a; stroke-width: 1.5; }
    .updating { fill: #fef08a; stroke: #ca8a04; stroke-width: 1.5; stroke-dasharray: 4 2; }
    
    .cp { fill: #E3F2FD; stroke: #2563eb; stroke-width: 1.5; }
    .node1 { fill: #E8F5E9; stroke: #16a34a; stroke-width: 1.5; }
    .node2 { fill: #FFF9C4; stroke: #ca8a04; stroke-width: 1.5; }
    
    .infra { fill: #E3F2FD; stroke: #2563eb; stroke-width: 1.5; }
    .platform { fill: #FFF9C4; stroke: #ca8a04; stroke-width: 1.5; }
    .app { fill: #E8F5E9; stroke: #16a34a; stroke-width: 1.5; }
    .fe { fill: #F3E5F5; stroke: #9c27b0; stroke-width: 1.5; }
    
    .service { fill: #ffffff; stroke: #94a3b8; stroke-width: 1.5; }
    
    .arrow { stroke: #64748b; stroke-width: 1.5; fill: none; marker-end: url(#arrowhead); }
  </style>
  <rect x="280" y="20" width="400" height="180" rx="16" class="cp" />
  <text x="480" y="50" text-anchor="middle" class="title">Control Plane</text>
  <rect x="320" y="70" width="160" height="50" rx="8" class="service" />
  <text x="400" y="95" text-anchor="middle" class="">API Server</text>
  <rect x="500" y="70" width="140" height="50" rx="8" class="service" />
  <text x="570" y="95" text-anchor="middle" class="">etcd</text>
  <rect x="320" y="130" width="160" height="50" rx="8" class="service" />
  <text x="400" y="155" text-anchor="middle" class="">Scheduler</text>
  <rect x="500" y="130" width="140" height="50" rx="8" class="service" />
  <text x="570" y="155" text-anchor="middle" class="">Controller Mgr</text>
  <rect x="80" y="280" width="360" height="220" rx="16" class="node1" />
  <text x="260" y="310" text-anchor="middle" class="title">Worker Node 1</text>
  <rect x="100" y="330" width="140" height="50" rx="8" class="service" />
  <text x="170" y="355" text-anchor="middle" class="">Kubelet</text>
  <rect x="100" y="400" width="140" height="50" rx="8" class="service" />
  <text x="170" y="425" text-anchor="middle" class="">Kube-proxy</text>
  <rect x="260" y="330" width="160" height="50" rx="8" class="service" />
  <text x="340" y="355" text-anchor="middle" class="">Pod: Core Service</text>
  <rect x="260" y="400" width="160" height="50" rx="8" class="service" />
  <text x="340" y="425" text-anchor="middle" class="">Pod: Auth Service</text>
  <rect x="520" y="280" width="360" height="220" rx="16" class="node2" />
  <text x="700" y="310" text-anchor="middle" class="title">Worker Node 2</text>
  <rect x="540" y="330" width="140" height="50" rx="8" class="service" />
  <text x="610" y="355" text-anchor="middle" class="">Kubelet</text>
  <rect x="540" y="400" width="140" height="50" rx="8" class="service" />
  <text x="610" y="425" text-anchor="middle" class="">Kube-proxy</text>
  <rect x="700" y="330" width="160" height="50" rx="8" class="service" />
  <text x="780" y="355" text-anchor="middle" class="">Pod: Judge Service</text>
  <rect x="700" y="400" width="160" height="50" rx="8" class="service" />
  <text x="780" y="425" text-anchor="middle" class="">Pod: Gateway</text>
  <path d="M 360 120 L 170 330" class="arrow" />
  <path d="M 440 120 L 610 330" class="arrow" />
</svg>