<svg xmlns="http://www.w3.org/2000/svg" viewBox="0 0 960 540" width="100%" height="100%">
  <defs>
    <marker id="arrowhead" markerWidth="10" markerHeight="7" refX="9" refY="3.5" orient="auto">
      <polygon points="0 0, 10 3.5, 0 7" fill="#64748b" />
    </marker>
      <filter id="shadow" x="-4%" y="-4%" width="108%" height="116%">
      <feDropShadow dx="1" dy="2" stdDeviation="2.5" flood-color="#0000001a"/>
    </filter>
    <linearGradient id="grad-service" x1="0" y1="0" x2="0" y2="1">
      <stop offset="0%" stop-color="#e6f4f3"/>
      <stop offset="100%" stop-color="#ccebe8"/>
    </linearGradient>
    <linearGradient id="grad-storage" x1="0" y1="0" x2="0" y2="1">
      <stop offset="0%" stop-color="#dbeafe"/>
      <stop offset="100%" stop-color="#bfdbfe"/>
    </linearGradient>
    <linearGradient id="grad-event" x1="0" y1="0" x2="0" y2="1">
      <stop offset="0%" stop-color="#fef9c3"/>
      <stop offset="100%" stop-color="#fef08a"/>
    </linearGradient>
    <linearGradient id="grad-success" x1="0" y1="0" x2="0" y2="1">
      <stop offset="0%" stop-color="#dcfce7"/>
      <stop offset="100%" stop-color="#bbf7d0"/>
    </linearGradient>
    <linearGradient id="grad-danger" x1="0" y1="0" x2="0" y2="1">
      <stop offset="0%" stop-color="#fee2e2"/>
      <stop offset="100%" stop-color="#fecaca"/>
    </linearGradient>
    <linearGradient id="grad-warning" x1="0" y1="0" x2="0" y2="1">
      <stop offset="0%" stop-color="#fff7ed"/>
      <stop offset="100%" stop-color="#ffedd5"/>
    </linearGradient>
    <linearGradient id="grad-info" x1="0" y1="0" x2="0" y2="1">
      <stop offset="0%" stop-color="#eff6ff"/>
      <stop offset="100%" stop-color="#dbeafe"/>
    </linearGradient>
    <linearGradient id="grad-highlight" x1="0" y1="0" x2="0" y2="1">
      <stop offset="0%" stop-color="#f5f3ff"/>
      <stop offset="100%" stop-color="#ede9fe"/>
    </linearGradient>
    <linearGradient id="grad-legacy" x1="0" y1="0" x2="0" y2="1">
      <stop offset="0%" stop-color="#f3f4f6"/>
      <stop offset="100%" stop-color="#e5e7eb"/>
    </linearGradient>
  </defs>
  <style>
    text { font-family: 'Segoe UI', system-ui, -apple-system, sans-serif; font-size: 14px; fill: #1a202c; }
    .title { font-weight: 600; font-size: 16px; }
    .subtitle { font-size: 13px; fill: #64748b; }
    .cluster { fill: #f8fafc; stroke: #94a3b8; stroke-width: 1.5; stroke-dasharray: 6 3; }
    .service { fill: url(#grad-service); stroke: #0f766e; stroke-width: 2.0; filter: url(#shadow); }
    .gateway { fill: #FFF9C4; stroke: #ca8a04; stroke-width: 1.5; }
    .danger { fill: #FFCDD2; stroke: #dc2626; stroke-width: 1.5; }
    .legacy  { fill: url(#grad-legacy);  stroke: #9ca3af;  stroke-width: 1.5; filter: url(#shadow); }
    .note    { fill: #ffffff;    stroke: #cbd5e1;   stroke-width: 1.5; filter: url(#shadow); }
    .arrow { stroke: #64748b; stroke-width: 1.5; fill: none; marker-end: url(#arrowhead); }
    .arrow-label { font-size: 12px; fill: #475569; text-anchor: middle; }
    .arrow-bg { fill: #ffffff; opacity: 0.9; }
    .interface { fill: #fefce8; stroke: #ca8a04; stroke-width: 1.5; rx: 8; }
  </style>
  <rect x="50" y="60" width="260" height="380" rx="16" class="cluster" />
  <text x="180" y="90" text-anchor="middle" class="title">Step 1: Tạo abstraction</text>
  <rect x="130" y="120" width="100" height="40" rx="8" class="note" />
  <text x="180" y="145" text-anchor="middle" class="">Code</text>
  <rect x="120" y="200" width="120" height="40" rx="8" class="interface" />
  <text x="180" y="225" text-anchor="middle" class="">Interface</text>
  <path d="M 180 160 L 180 200" class="arrow" />
  <rect x="90" y="300" width="180" height="40" rx="8" class="danger" />
  <text x="180" y="325" text-anchor="middle" class="">Old Implementation</text>
  <path d="M 180 240 L 180 300" class="arrow" />
  <rect x="350" y="60" width="260" height="380" rx="16" class="cluster" />
  <text x="480" y="90" text-anchor="middle" class="title">Step 2: Implement mới</text>
  <rect x="430" y="120" width="100" height="40" rx="8" class="note" />
  <text x="480" y="145" text-anchor="middle" class="">Code</text>
  <rect x="420" y="200" width="120" height="40" rx="8" class="interface" />
  <text x="480" y="225" text-anchor="middle" class="">Interface</text>
  <path d="M 480 160 L 480 200" class="arrow" />
  <rect x="390" y="300" width="180" height="40" rx="8" class="danger" />
  <text x="480" y="325" text-anchor="middle" class="">Old Implementation</text>
  <path d="M 480 240 L 480 300" class="arrow" />
  <rect x="440.0" y="258.0" width="80" height="24" class="arrow-bg" />
  <text x="480.0" y="274.0" class="arrow-label">feature flag</text>
  <rect x="390" y="380" width="180" height="40" rx="8" class="service" />
  <text x="480" y="405" text-anchor="middle" class="">New Implementation</text>
  <path d="M 480 240 L 480 380" class="arrow" />
  <rect x="440.0" y="298.0" width="80" height="24" class="arrow-bg" />
  <text x="480.0" y="314.0" class="arrow-label">feature flag</text>
  <rect x="650" y="60" width="260" height="380" rx="16" class="cluster" />
  <text x="780" y="90" text-anchor="middle" class="title">Step 3: Remove cũ</text>
  <rect x="730" y="120" width="100" height="40" rx="8" class="note" />
  <text x="780" y="145" text-anchor="middle" class="">Code</text>
  <rect x="720" y="200" width="120" height="40" rx="8" class="interface" />
  <text x="780" y="225" text-anchor="middle" class="">Interface</text>
  <path d="M 780 160 L 780 200" class="arrow" />
  <rect x="690" y="300" width="180" height="40" rx="8" class="service" />
  <text x="780" y="325" text-anchor="middle" class="">New Implementation</text>
  <path d="M 780 240 L 780 300" class="arrow" />
  <path d="M 310 250 L 350 250" class="arrow" />
  <path d="M 610 250 L 650 250" class="arrow" />
</svg>