<svg xmlns="http://www.w3.org/2000/svg" viewBox="0 0 960 540" width="100%" height="100%">
  <defs>
    <marker id="arrowhead" markerWidth="10" markerHeight="7" refX="9" refY="3.5" orient="auto">
      <polygon points="0 0, 10 3.5, 0 7" fill="#64748b" />
    </marker>
  </defs>
  <style>
    text { font-family: 'Segoe UI', system-ui, -apple-system, sans-serif; font-size: 14px; fill: #1a202c; }
    .title { font-weight: bold; font-size: 16px; }
    .subtitle { font-size: 13px; fill: #64748b; }
    .cluster { fill: #f8fafc; stroke: #94a3b8; stroke-width: 1.5; stroke-dasharray: 6 3; }
    .service { fill: #e6f4f3; stroke: #0f766e; stroke-width: 1.5; }
    .gateway { fill: #FFF9C4; stroke: #ca8a04; stroke-width: 1.5; }
    .danger { fill: #FFCDD2; stroke: #dc2626; stroke-width: 1.5; }
    .legacy { fill: #f3f4f6; stroke: #9ca3af; stroke-width: 1.5; }
    .note { fill: #ffffff; stroke: #cbd5e1; stroke-width: 1.5; }
    .arrow { stroke: #64748b; stroke-width: 1.5; fill: none; marker-end: url(#arrowhead); }
    .arrow-label { font-size: 12px; fill: #475569; text-anchor: middle; }
    .arrow-bg { fill: #ffffff; opacity: 0.9; }
    .interface { fill: #fefce8; stroke: #ca8a04; stroke-width: 1.5; rx: 8; }
  </style>
  <rect x="50" y="60" width="260" height="380" rx="16" class="cluster" />
  <text x="180" y="90" text-anchor="middle" class="title">Step 1: Tạo abstraction</text>
  <rect x="130" y="120" width="100" height="40" rx="8" class="note" />
  <text x="180" y="145" text-anchor="middle" class="">Code</text>
  <rect x="120" y="200" width="120" height="40" rx="8" class="interface" />
  <text x="180" y="225" text-anchor="middle" class="">Interface</text>
  <path d="M 180 160 L 180 200" class="arrow" />
  <rect x="90" y="300" width="180" height="40" rx="8" class="danger" />
  <text x="180" y="325" text-anchor="middle" class="">Old Implementation</text>
  <path d="M 180 240 L 180 300" class="arrow" />
  <rect x="350" y="60" width="260" height="380" rx="16" class="cluster" />
  <text x="480" y="90" text-anchor="middle" class="title">Step 2: Implement mới</text>
  <rect x="430" y="120" width="100" height="40" rx="8" class="note" />
  <text x="480" y="145" text-anchor="middle" class="">Code</text>
  <rect x="420" y="200" width="120" height="40" rx="8" class="interface" />
  <text x="480" y="225" text-anchor="middle" class="">Interface</text>
  <path d="M 480 160 L 480 200" class="arrow" />
  <rect x="390" y="300" width="180" height="40" rx="8" class="danger" />
  <text x="480" y="325" text-anchor="middle" class="">Old Implementation</text>
  <path d="M 480 240 L 480 300" class="arrow" />
  <rect x="440.0" y="258.0" width="80" height="24" class="arrow-bg" />
  <text x="480.0" y="274.0" class="arrow-label">feature flag</text>
  <rect x="390" y="380" width="180" height="40" rx="8" class="service" />
  <text x="480" y="405" text-anchor="middle" class="">New Implementation</text>
  <path d="M 480 240 L 480 380" class="arrow" />
  <rect x="440.0" y="298.0" width="80" height="24" class="arrow-bg" />
  <text x="480.0" y="314.0" class="arrow-label">feature flag</text>
  <rect x="650" y="60" width="260" height="380" rx="16" class="cluster" />
  <text x="780" y="90" text-anchor="middle" class="title">Step 3: Remove cũ</text>
  <rect x="730" y="120" width="100" height="40" rx="8" class="note" />
  <text x="780" y="145" text-anchor="middle" class="">Code</text>
  <rect x="720" y="200" width="120" height="40" rx="8" class="interface" />
  <text x="780" y="225" text-anchor="middle" class="">Interface</text>
  <path d="M 780 160 L 780 200" class="arrow" />
  <rect x="690" y="300" width="180" height="40" rx="8" class="service" />
  <text x="780" y="325" text-anchor="middle" class="">New Implementation</text>
  <path d="M 780 240 L 780 300" class="arrow" />
  <path d="M 310 250 L 350 250" class="arrow" />
  <path d="M 610 250 L 650 250" class="arrow" />
</svg>