<svg xmlns="http://www.w3.org/2000/svg" viewBox="0 0 960 540" width="100%" height="100%">
  <defs>
    <marker id="arrowhead" markerWidth="10" markerHeight="7" refX="9" refY="3.5" orient="auto">
      <polygon points="0 0, 10 3.5, 0 7" fill="#64748b" />
    </marker>
    <marker id="arrowhead-danger" markerWidth="10" markerHeight="7" refX="9" refY="3.5" orient="auto">
      <polygon points="0 0, 10 3.5, 0 7" fill="#dc2626" />
    </marker>
  </defs>
  <style>
    text {
      font-family: 'Segoe UI', system-ui, -apple-system, sans-serif;
      font-size: 14px;
      fill: #1a202c;
    }
    .title { font-weight: bold; font-size: 16px; }
    .small { font-size: 12px; }
    .subtitle { font-size: 13px; fill: #64748b; }
    .mono { font-family: 'Consolas', 'DejaVu Sans Mono', monospace; font-size: 12px; }

    .cluster { fill: #f8fafc; stroke: #94a3b8; stroke-width: 1.5; stroke-dasharray: 6 3; }
    .service { fill: #e6f4f3; stroke: #0f766e; stroke-width: 1.5; }
    .storage { fill: #dbeafe; stroke: #2563eb; stroke-width: 1.5; }
    .event   { fill: #fef9c3;   stroke: #ca8a04;   stroke-width: 1.5; }
    .success { fill: #dcfce7; stroke: #16a34a; stroke-width: 1.5; }
    .danger  { fill: #fee2e2;  stroke: #dc2626;  stroke-width: 1.5; }
    .warning { fill: #fff7ed; stroke: #ea580c; stroke-width: 1.5; }
    .info    { fill: #eff6ff;    stroke: #3b82f6;    stroke-width: 1.5; }
    .highlight { fill: #f5f3ff; stroke: #7c3aed; stroke-width: 1.5; }
    .legacy  { fill: #f3f4f6;  stroke: #9ca3af;  stroke-width: 1.5; }
    .note    { fill: #ffffff;     stroke: #cbd5e1;   stroke-width: 1.5; }
    .step    { fill: #ffffff;     stroke: #94a3b8;         stroke-width: 1.5; }

    .arrow {
      stroke: #64748b; stroke-width: 1.5; fill: none;
      marker-end: url(#arrowhead);
    }
    .arrow-dashed {
      stroke: #64748b; stroke-width: 1.5; fill: none;
      stroke-dasharray: 6 3; marker-end: url(#arrowhead);
    }
    .arrow-danger {
      stroke: #dc2626; stroke-width: 2; fill: none;
      marker-end: url(#arrowhead-danger);
    }
    .arrow-bg { fill: #ffffff; opacity: 0.9; }
    .lifeline {
      stroke: #94a3b8; stroke-width: 1;
      stroke-dasharray: 4 3; fill: none;
    }
  </style>
  <text x="480" y="25" text-anchor="middle" class="title">Kiến trúc tổng quan — KBLab LMS</text>
  <rect x="360" y="45" width="240" height="35" rx="8" class="highlight" />
  <text x="480.0" y="67.5" text-anchor="middle" class="title">🖥️ Frontend (Next.js)</text>
  <path d="M 480 80 L 480 100" class="arrow" />
  <rect x="340" y="100" width="280" height="35" rx="8" class="event" />
  <text x="480.0" y="122.5" text-anchor="middle" class="title">🚪 API Gateway (Spring Cloud Gateway)</text>
  <rect x="720" y="100" width="190" height="35" rx="8" class="info" />
  <text x="815.0" y="122.5" text-anchor="middle" class="title">🔍 Eureka (Discovery)</text>
  <line x1="620" y1="117" x2="720" y2="117" stroke="#94a3b8" stroke-width="1" stroke-dasharray="4 3" />
  <path d="M 480 135 L 480 170" class="arrow" />
  <rect x="60" y="175" width="175" height="75" rx="8" class="service" />
  <text x="147" y="197" text-anchor="middle" class="small">🔐 Auth Service</text>
  <text x="147" y="217" text-anchor="middle" class="subtitle">Authentication,</text>
  <text x="147" y="233" text-anchor="middle" class="subtitle">User Management</text>
  <rect x="255" y="175" width="175" height="75" rx="8" class="service" />
  <text x="342" y="197" text-anchor="middle" class="small">📝 Core Service</text>
  <text x="342" y="217" text-anchor="middle" class="subtitle">Platform,</text>
  <text x="342" y="233" text-anchor="middle" class="subtitle">SQL Practice</text>
  <rect x="450" y="175" width="175" height="75" rx="8" class="service" />
  <text x="537" y="197" text-anchor="middle" class="small">📋 Assignment Svc</text>
  <text x="537" y="217" text-anchor="middle" class="subtitle">Assignments,</text>
  <text x="537" y="233" text-anchor="middle" class="subtitle">Exams, Grading</text>
  <rect x="645" y="175" width="175" height="75" rx="8" class="event" />
  <text x="732" y="197" text-anchor="middle" class="small">⚖️ Judge Service</text>
  <text x="732" y="217" text-anchor="middle" class="subtitle">SQL Execution,</text>
  <text x="732" y="233" text-anchor="middle" class="subtitle">Auto-grading</text>
  <rect x="830" y="175" width="175" height="75" rx="8" class="info" />
  <text x="917" y="197" text-anchor="middle" class="small">🔔 Notification</text>
  <text x="917" y="217" text-anchor="middle" class="subtitle">Real-time alerts</text>
  <path d="M 480 135 L 147 175" class="arrow" />
  <path d="M 480 135 L 342 175" class="arrow" />
  <path d="M 480 135 L 537 175" class="arrow" />
  <path d="M 480 135 L 732 175" class="arrow" />
  <rect x="200" y="290" width="560" height="35" rx="8" class="event" />
  <text x="480" y="312" text-anchor="middle" class="title">📨 Apache Kafka (Event Bus)</text>
  <path d="M 342 250 L 342 290" class="arrow" />
  <path d="M 537 250 L 537 290" class="arrow" />
  <path d="M 480 325 L 480 325" class="arrow" />
  <path d="M 732 250 L 600 290" class="arrow" />
  <rect x="40" y="370" width="880" height="150" rx="12" class="cluster" />
  <text x="480" y="392" text-anchor="middle" class="title">Data Layer</text>
  <rect x="80" y="410" width="220" height="55" rx="8" class="storage" />
  <text x="190.0" y="433.5" text-anchor="middle" class="title">🐘 PostgreSQL</text>
  <text x="190.0" y="451.5" text-anchor="middle" class="subtitle">(shared database)</text>
  <rect x="370" y="410" width="220" height="55" rx="8" class="storage" />
  <text x="480.0" y="433.5" text-anchor="middle" class="title">🐬 MySQL / MSSQL</text>
  <text x="480.0" y="451.5" text-anchor="middle" class="subtitle">(Student sandboxes)</text>
  <rect x="660" y="410" width="220" height="55" rx="8" class="storage" />
  <text x="770.0" y="433.5" text-anchor="middle" class="title">🔑 Auth Database</text>
  <text x="770.0" y="451.5" text-anchor="middle" class="subtitle">(User credentials)</text>
  <path d="M 342 325 L 190 410" class="arrow" />
  <path d="M 537 325 L 480 410" class="arrow" />
  <path d="M 732 325 L 480 410" class="arrow" />
  <path d="M 147 250 L 147 370" class="arrow" />
</svg>