<svg xmlns="http://www.w3.org/2000/svg" viewBox="0 0 960 540" width="100%" height="100%">
  <defs>
    <marker id="arrowhead" markerWidth="10" markerHeight="7" refX="9" refY="3.5" orient="auto">
      <polygon points="0 0, 10 3.5, 0 7" fill="#64748b" />
    </marker>
    <marker id="arrowhead-danger" markerWidth="10" markerHeight="7" refX="9" refY="3.5" orient="auto">
      <polygon points="0 0, 10 3.5, 0 7" fill="#dc2626" />
    </marker>
  </defs>
  <style>
    text {
      font-family: 'Segoe UI', system-ui, -apple-system, sans-serif;
      font-size: 14px;
      fill: #1a202c;
    }
    .title { font-weight: bold; font-size: 16px; }
    .small { font-size: 12px; }
    .subtitle { font-size: 13px; fill: #64748b; }
    .mono { font-family: 'Consolas', 'DejaVu Sans Mono', monospace; font-size: 12px; }

    .cluster { fill: #f8fafc; stroke: #94a3b8; stroke-width: 1.5; stroke-dasharray: 6 3; }
    .service { fill: #e6f4f3; stroke: #0f766e; stroke-width: 1.5; }
    .storage { fill: #dbeafe; stroke: #2563eb; stroke-width: 1.5; }
    .event   { fill: #fef9c3;   stroke: #ca8a04;   stroke-width: 1.5; }
    .success { fill: #dcfce7; stroke: #16a34a; stroke-width: 1.5; }
    .danger  { fill: #fee2e2;  stroke: #dc2626;  stroke-width: 1.5; }
    .warning { fill: #fff7ed; stroke: #ea580c; stroke-width: 1.5; }
    .info    { fill: #eff6ff;    stroke: #3b82f6;    stroke-width: 1.5; }
    .highlight { fill: #f5f3ff; stroke: #7c3aed; stroke-width: 1.5; }
    .legacy  { fill: #f3f4f6;  stroke: #9ca3af;  stroke-width: 1.5; }
    .note    { fill: #ffffff;     stroke: #cbd5e1;   stroke-width: 1.5; }
    .step    { fill: #ffffff;     stroke: #94a3b8;         stroke-width: 1.5; }

    .arrow {
      stroke: #64748b; stroke-width: 1.5; fill: none;
      marker-end: url(#arrowhead);
    }
    .arrow-dashed {
      stroke: #64748b; stroke-width: 1.5; fill: none;
      stroke-dasharray: 6 3; marker-end: url(#arrowhead);
    }
    .arrow-danger {
      stroke: #dc2626; stroke-width: 2; fill: none;
      marker-end: url(#arrowhead-danger);
    }
    .arrow-bg { fill: #ffffff; opacity: 0.9; }
    .lifeline {
      stroke: #94a3b8; stroke-width: 1;
      stroke-dasharray: 4 3; fill: none;
    }
  </style>
  <text x="480" y="30" text-anchor="middle" class="title">Con đường từ Monolith đến Microservices</text>
  <rect x="60" y="200" width="200" height="70" rx="8" class="danger" />
  <text x="160.0" y="231.0" text-anchor="middle" class="title">Patchwork Monolith</text>
  <text x="160.0" y="249.0" text-anchor="middle" class="subtitle">Big ball of mud</text>
  <rect x="330" y="200" width="200" height="70" rx="8" class="event" />
  <text x="430.0" y="231.0" text-anchor="middle" class="title">Modular Monolith</text>
  <text x="430.0" y="249.0" text-anchor="middle" class="subtitle">Clear boundaries</text>
  <rect x="600" y="200" width="200" height="70" rx="8" class="service" />
  <text x="700.0" y="231.0" text-anchor="middle" class="title">Microservices</text>
  <text x="700.0" y="249.0" text-anchor="middle" class="subtitle">(hybrid hoặc full)</text>
  <path d="M 260 235 L 330 235" class="arrow" />
  <rect x="267.0" y="224.0" width="56" height="18" rx="3" class="arrow-bg" />
  <text x="295.0" y="238.0" text-anchor="middle" class="small" fill="#475569">refactor</text>
  <path d="M 530 235 L 600 235" class="arrow" />
  <rect x="537.0" y="224.0" width="56" height="18" rx="3" class="arrow-bg" />
  <text x="565.0" y="238.0" text-anchor="middle" class="small" fill="#475569">tách dần</text>
  <path d="M 160 270 Q 160 420 500 420 Q 700 420 700 270" class="arrow-danger" />
  <rect x="350" y="380" width="260" height="70" rx="8" class="danger" />
  <text x="480.0" y="411.0" text-anchor="middle" class="title">❌ Distributed Monolith</text>
  <text x="480.0" y="429.0" text-anchor="middle" class="subtitle">Worst of both worlds</text>
  <text x="480" y="470" text-anchor="middle" class="subtitle">⚠ Tách trực tiếp không qua modular hóa</text>
  <rect x="70" y="80" width="180" height="55" rx="8" class="note" />
  <text x="160" y="100" text-anchor="middle" class="small">Code chắp vá</text>
  <text x="160" y="118" text-anchor="middle" class="subtitle">Ranh giới mờ nhạt</text>
  <rect x="340" y="80" width="180" height="55" rx="8" class="note" />
  <text x="430" y="100" text-anchor="middle" class="small">Module rõ ràng</text>
  <text x="430" y="118" text-anchor="middle" class="subtitle">Interface-based</text>
  <rect x="610" y="80" width="180" height="55" rx="8" class="note" />
  <text x="700" y="100" text-anchor="middle" class="small">Deploy độc lập</text>
  <text x="700" y="118" text-anchor="middle" class="subtitle">Database-per-service</text>
  <line x1="160" y1="135" x2="160" y2="200" stroke="#94a3b8" stroke-width="1" stroke-dasharray="4 3" />
  <line x1="430" y1="135" x2="430" y2="200" stroke="#94a3b8" stroke-width="1" stroke-dasharray="4 3" />
  <line x1="700" y1="135" x2="700" y2="200" stroke="#94a3b8" stroke-width="1" stroke-dasharray="4 3" />
</svg>