<svg xmlns="http://www.w3.org/2000/svg" viewBox="0 0 960 540" width="100%" height="100%">
  <defs>
    <marker id="arrowhead" markerWidth="10" markerHeight="7" refX="9" refY="3.5" orient="auto">
      <polygon points="0 0, 10 3.5, 0 7" fill="#64748b" />
    </marker>
    <marker id="arrowhead-danger" markerWidth="10" markerHeight="7" refX="9" refY="3.5" orient="auto">
      <polygon points="0 0, 10 3.5, 0 7" fill="#dc2626" />
    </marker>
  </defs>
  <style>
    text {
      font-family: 'Segoe UI', system-ui, -apple-system, sans-serif;
      font-size: 14px;
      fill: #1a202c;
    }
    .title { font-weight: bold; font-size: 16px; }
    .small { font-size: 12px; }
    .subtitle { font-size: 13px; fill: #64748b; }
    .mono { font-family: 'Consolas', 'DejaVu Sans Mono', monospace; font-size: 12px; }

    .cluster { fill: #f8fafc; stroke: #94a3b8; stroke-width: 1.5; stroke-dasharray: 6 3; }
    .service { fill: #e6f4f3; stroke: #0f766e; stroke-width: 1.5; }
    .storage { fill: #dbeafe; stroke: #2563eb; stroke-width: 1.5; }
    .event   { fill: #fef9c3;   stroke: #ca8a04;   stroke-width: 1.5; }
    .success { fill: #dcfce7; stroke: #16a34a; stroke-width: 1.5; }
    .danger  { fill: #fee2e2;  stroke: #dc2626;  stroke-width: 1.5; }
    .warning { fill: #fff7ed; stroke: #ea580c; stroke-width: 1.5; }
    .info    { fill: #eff6ff;    stroke: #3b82f6;    stroke-width: 1.5; }
    .highlight { fill: #f5f3ff; stroke: #7c3aed; stroke-width: 1.5; }
    .legacy  { fill: #f3f4f6;  stroke: #9ca3af;  stroke-width: 1.5; }
    .note    { fill: #ffffff;     stroke: #cbd5e1;   stroke-width: 1.5; }
    .step    { fill: #ffffff;     stroke: #94a3b8;         stroke-width: 1.5; }

    .arrow {
      stroke: #64748b; stroke-width: 1.5; fill: none;
      marker-end: url(#arrowhead);
    }
    .arrow-dashed {
      stroke: #64748b; stroke-width: 1.5; fill: none;
      stroke-dasharray: 6 3; marker-end: url(#arrowhead);
    }
    .arrow-danger {
      stroke: #dc2626; stroke-width: 2; fill: none;
      marker-end: url(#arrowhead-danger);
    }
    .arrow-bg { fill: #ffffff; opacity: 0.9; }
    .lifeline {
      stroke: #94a3b8; stroke-width: 1;
      stroke-dasharray: 4 3; fill: none;
    }
  </style>
  <text x="480" y="25" text-anchor="middle" class="title">Erl's Service-Oriented Analysis — LMS</text>
  <rect x="30" y="50" width="430" height="210" rx="12" class="cluster" />
  <text x="245.0" y="78" text-anchor="middle" class="title">Buoc 1: Automation Candidates</text>
  <rect x="60" y="90" width="190" height="40" rx="8" class="info" />
  <text x="155.0" y="115.0" text-anchor="middle" class="title">Xac thuc nguoi dung</text>
  <rect x="270" y="90" width="190" height="40" rx="8" class="service" />
  <text x="365.0" y="115.0" text-anchor="middle" class="title">Quan ly cau hoi SQL</text>
  <rect x="60" y="145" width="190" height="40" rx="8" class="event" />
  <text x="155.0" y="170.0" text-anchor="middle" class="title">Cham bai tu dong</text>
  <rect x="270" y="145" width="190" height="40" rx="8" class="highlight" />
  <text x="365.0" y="170.0" text-anchor="middle" class="title">Quan ly bai tap/khoa hoc</text>
  <rect x="60" y="200" width="190" height="40" rx="8" class="warning" />
  <text x="155.0" y="225.0" text-anchor="middle" class="title">Thong bao ket qua</text>
  <rect x="500" y="50" width="430" height="210" rx="12" class="cluster" />
  <text x="715.0" y="78" text-anchor="middle" class="title">Buoc 2: Service Layers</text>
  <rect x="520" y="90" width="180" height="35" rx="8" class="event" />
  <text x="610.0" y="103.5" text-anchor="middle" class="title">Task: Submission</text>
  <text x="610.0" y="121.5" text-anchor="middle" class="subtitle">Orchestrator</text>
  <rect x="520" y="135" width="170" height="35" rx="8" class="info" />
  <text x="605.0" y="157.5" text-anchor="middle" class="title">Entity: User</text>
  <rect x="520" y="180" width="170" height="35" rx="8" class="service" />
  <text x="605.0" y="202.5" text-anchor="middle" class="title">Entity: Question</text>
  <rect x="520" y="225" width="170" height="35" rx="8" class="highlight" />
  <text x="605.0" y="247.5" text-anchor="middle" class="title">Entity: Course</text>
  <rect x="720" y="90" width="170" height="35" rx="8" class="info" />
  <text x="805.0" y="112.5" text-anchor="middle" class="title">Utility: Auth</text>
  <rect x="720" y="135" width="170" height="35" rx="8" class="warning" />
  <text x="805.0" y="157.5" text-anchor="middle" class="title">Utility: Notification</text>
  <rect x="720" y="180" width="180" height="35" rx="8" class="event" />
  <text x="810.0" y="193.5" text-anchor="middle" class="title">Complicated: Judge</text>
  <text x="810.0" y="211.5" text-anchor="middle" class="subtitle">Sandbox</text>
  <path d="M 460 155 L 500 155" class="arrow" />
  <rect x="30" y="290" width="900" height="220" rx="12" class="note" />
  <text x="480" y="315" text-anchor="middle" class="title">Kết quả: Ánh xạ sang Bounded Contexts</text>
  <rect x="60" y="345" width="180" height="32" rx="6" class="info" />
  <text x="150" y="366" text-anchor="middle" class="small">Identity &amp; Access</text>
  <text x="260" y="366" class="title">=</text>
  <text x="290" y="366" class="small">Auth Service</text>
  <text x="500" y="366" class="subtitle">Utility Auth</text>
  <rect x="60" y="385" width="180" height="32" rx="6" class="service" />
  <text x="150" y="406" text-anchor="middle" class="small">SQL Practice</text>
  <text x="260" y="406" class="title">=</text>
  <text x="290" y="406" class="small">Core Service</text>
  <text x="500" y="406" class="subtitle">Entity Question + Task Orchestrator</text>
  <rect x="60" y="425" width="180" height="32" rx="6" class="event" />
  <text x="150" y="446" text-anchor="middle" class="small">Evaluation</text>
  <text x="260" y="446" class="title">=</text>
  <text x="290" y="446" class="small">Judge Service</text>
  <text x="500" y="446" class="subtitle">Complicated Subsystem</text>
  <rect x="60" y="465" width="180" height="32" rx="6" class="highlight" />
  <text x="150" y="486" text-anchor="middle" class="small">Academic</text>
  <text x="260" y="486" class="title">=</text>
  <text x="290" y="486" class="small">Assignment Service</text>
  <text x="500" y="486" class="subtitle">Entity Course</text>
</svg>