<svg xmlns="http://www.w3.org/2000/svg" viewBox="0 0 960 540" width="100%" height="100%">
  <defs>
    <marker id="arrowhead" markerWidth="10" markerHeight="7" refX="9" refY="3.5" orient="auto">
      <polygon points="0 0, 10 3.5, 0 7" fill="#64748b" />
    </marker>
    <marker id="arrowhead-dash" markerWidth="10" markerHeight="7" refX="9" refY="3.5" orient="auto">
      <polygon points="0 0, 10 3.5, 0 7" fill="#be185d" />
    </marker>
      <filter id="shadow" x="-4%" y="-4%" width="108%" height="116%">
      <feDropShadow dx="1" dy="2" stdDeviation="2.5" flood-color="#0000001a"/>
    </filter>
    <linearGradient id="grad-service" x1="0" y1="0" x2="0" y2="1">
      <stop offset="0%" stop-color="#e6f4f3"/>
      <stop offset="100%" stop-color="#ccebe8"/>
    </linearGradient>
    <linearGradient id="grad-storage" x1="0" y1="0" x2="0" y2="1">
      <stop offset="0%" stop-color="#dbeafe"/>
      <stop offset="100%" stop-color="#bfdbfe"/>
    </linearGradient>
    <linearGradient id="grad-event" x1="0" y1="0" x2="0" y2="1">
      <stop offset="0%" stop-color="#fef9c3"/>
      <stop offset="100%" stop-color="#fef08a"/>
    </linearGradient>
    <linearGradient id="grad-success" x1="0" y1="0" x2="0" y2="1">
      <stop offset="0%" stop-color="#dcfce7"/>
      <stop offset="100%" stop-color="#bbf7d0"/>
    </linearGradient>
    <linearGradient id="grad-danger" x1="0" y1="0" x2="0" y2="1">
      <stop offset="0%" stop-color="#fee2e2"/>
      <stop offset="100%" stop-color="#fecaca"/>
    </linearGradient>
    <linearGradient id="grad-warning" x1="0" y1="0" x2="0" y2="1">
      <stop offset="0%" stop-color="#fff7ed"/>
      <stop offset="100%" stop-color="#ffedd5"/>
    </linearGradient>
    <linearGradient id="grad-info" x1="0" y1="0" x2="0" y2="1">
      <stop offset="0%" stop-color="#eff6ff"/>
      <stop offset="100%" stop-color="#dbeafe"/>
    </linearGradient>
    <linearGradient id="grad-highlight" x1="0" y1="0" x2="0" y2="1">
      <stop offset="0%" stop-color="#f5f3ff"/>
      <stop offset="100%" stop-color="#ede9fe"/>
    </linearGradient>
    <linearGradient id="grad-legacy" x1="0" y1="0" x2="0" y2="1">
      <stop offset="0%" stop-color="#f3f4f6"/>
      <stop offset="100%" stop-color="#e5e7eb"/>
    </linearGradient>
  </defs>
  <style>
    text { font-family: 'Segoe UI', system-ui, -apple-system, sans-serif; font-size: 14px; fill: #1a202c; }
    .title { font-weight: 600; font-size: 16px; }
    .subtitle { font-size: 13px; fill: #64748b; }
    .cluster { fill: #f8fafc; stroke: #94a3b8; stroke-width: 1.5; stroke-dasharray: 6 3; }
    .service { fill: url(#grad-service); stroke: #0f766e; stroke-width: 2.0; filter: url(#shadow); }
    .entity { fill: #fef3e2; stroke: #b45309; stroke-width: 1.5; }
    .highlight { fill: #fdf2f8; stroke: #be185d; stroke-width: 1.5; }
    .note    { fill: #ffffff;    stroke: #cbd5e1;   stroke-width: 1.5; filter: url(#shadow); }
    .arrow { stroke: #64748b; stroke-width: 1.5; fill: none; marker-end: url(#arrowhead); }
    .arrow-dash { stroke: #be185d; stroke-width: 1.5; fill: none; stroke-dasharray: 5 5; marker-end: url(#arrowhead-dash); }
    .line-dash { stroke: #be185d; stroke-width: 1.5; fill: none; stroke-dasharray: 5 5; }
    .arrow-label { font-size: 12px; fill: #475569; text-anchor: middle; }
    .arrow-bg { fill: #ffffff; opacity: 0.9; }
    .chapter-bg { fill: rgba(37, 99, 235, 0.1); stroke: #2563eb; stroke-width: 1.5; stroke-dasharray: 4 4; rx: 8; }
  </style>
  <rect x="40" y="40" width="560" height="440" rx="16" class="cluster" />
  <text x="60" y="70" class="title">Tribe (40-150 người)</text>
  <rect x="250" y="80" width="120" height="380" class="chapter-bg" />
  <text x="310" y="440" text-anchor="middle" class="subtitle">Chapter (cross-squad)</text>
  <text x="310" y="455" text-anchor="middle" class="subtitle">All BE Devs</text>
  <rect x="60" y="90" width="520" height="90" rx="12" class="service" />
  <text x="80" y="115" class="title">Squad: Search</text>
  <path d="M 180 150 L 270 150" stroke="#64748b" stroke-width="1.5" />
  <path d="M 350 150 L 440 150" stroke="#64748b" stroke-width="1.5" />
  <rect x="100" y="130" width="80" height="40" rx="8" class="note" />
  <text x="140" y="155" text-anchor="middle" class="">FE Dev</text>
  <rect x="270" y="130" width="80" height="40" rx="8" class="note" />
  <text x="310" y="155" text-anchor="middle" class="">BE Dev</text>
  <rect x="440" y="130" width="80" height="40" rx="8" class="note" />
  <text x="480" y="155" text-anchor="middle" class="">Tester</text>
  <rect x="60" y="200" width="520" height="90" rx="12" class="entity" />
  <text x="80" y="225" class="title">Squad: Player</text>
  <path d="M 180 260 L 270 260" stroke="#64748b" stroke-width="1.5" />
  <path d="M 350 260 L 440 260" stroke="#64748b" stroke-width="1.5" />
  <rect x="100" y="240" width="80" height="40" rx="8" class="note" />
  <text x="140" y="265" text-anchor="middle" class="">FE Dev</text>
  <rect x="270" y="240" width="80" height="40" rx="8" class="note" />
  <text x="310" y="265" text-anchor="middle" class="">BE Dev</text>
  <rect x="440" y="240" width="80" height="40" rx="8" class="note" />
  <text x="480" y="265" text-anchor="middle" class="">Data</text>
  <rect x="60" y="310" width="520" height="90" rx="12" class="service" />
  <text x="80" y="335" class="title">Squad: Social</text>
  <path d="M 180 370 L 270 370" stroke="#64748b" stroke-width="1.5" />
  <path d="M 350 370 L 440 370" stroke="#64748b" stroke-width="1.5" />
  <rect x="100" y="350" width="80" height="40" rx="8" class="note" />
  <text x="140" y="375" text-anchor="middle" class="">FE Dev</text>
  <rect x="270" y="350" width="80" height="40" rx="8" class="note" />
  <text x="310" y="375" text-anchor="middle" class="">BE Dev</text>
  <rect x="440" y="350" width="80" height="40" rx="8" class="note" />
  <text x="480" y="375" text-anchor="middle" class="">UX</text>
  <rect x="650" y="200" width="260" height="120" rx="12" class="cluster" />
  <text x="780" y="240" text-anchor="middle" class="title">Guild (cross-tribe)</text>
  <text x="780" y="265" text-anchor="middle" class="">Ví dụ: Web Performance Guild</text>
  <text x="780" y="290" text-anchor="middle" class="">(Cộng đồng chia sẻ kiến thức)</text>
  <path d="M 650 260 L 600 260" class="line-dash" />
</svg>