<svg xmlns="http://www.w3.org/2000/svg" viewBox="0 0 960 540" width="100%" height="100%">
  <defs>
    <marker id="arrowhead" markerWidth="10" markerHeight="7" refX="9" refY="3.5" orient="auto">
      <polygon points="0 0, 10 3.5, 0 7" fill="#64748b" />
    </marker>
    <marker id="arrowhead-danger" markerWidth="10" markerHeight="7" refX="9" refY="3.5" orient="auto">
      <polygon points="0 0, 10 3.5, 0 7" fill="#dc2626" />
    </marker>
    <filter id="shadow" x="-4%" y="-4%" width="108%" height="116%">
      <feDropShadow dx="1" dy="2" stdDeviation="2.5" flood-color="#0000001a"/>
    </filter>
    <linearGradient id="grad-service" x1="0" y1="0" x2="0" y2="1">
      <stop offset="0%" stop-color="#e6f4f3"/>
      <stop offset="100%" stop-color="#ccebe8"/>
    </linearGradient>
    <linearGradient id="grad-storage" x1="0" y1="0" x2="0" y2="1">
      <stop offset="0%" stop-color="#dbeafe"/>
      <stop offset="100%" stop-color="#bfdbfe"/>
    </linearGradient>
    <linearGradient id="grad-event" x1="0" y1="0" x2="0" y2="1">
      <stop offset="0%" stop-color="#fef9c3"/>
      <stop offset="100%" stop-color="#fef08a"/>
    </linearGradient>
    <linearGradient id="grad-success" x1="0" y1="0" x2="0" y2="1">
      <stop offset="0%" stop-color="#dcfce7"/>
      <stop offset="100%" stop-color="#bbf7d0"/>
    </linearGradient>
    <linearGradient id="grad-danger" x1="0" y1="0" x2="0" y2="1">
      <stop offset="0%" stop-color="#fee2e2"/>
      <stop offset="100%" stop-color="#fecaca"/>
    </linearGradient>
    <linearGradient id="grad-warning" x1="0" y1="0" x2="0" y2="1">
      <stop offset="0%" stop-color="#fff7ed"/>
      <stop offset="100%" stop-color="#ffedd5"/>
    </linearGradient>
    <linearGradient id="grad-info" x1="0" y1="0" x2="0" y2="1">
      <stop offset="0%" stop-color="#eff6ff"/>
      <stop offset="100%" stop-color="#dbeafe"/>
    </linearGradient>
    <linearGradient id="grad-highlight" x1="0" y1="0" x2="0" y2="1">
      <stop offset="0%" stop-color="#f5f3ff"/>
      <stop offset="100%" stop-color="#ede9fe"/>
    </linearGradient>
    <linearGradient id="grad-legacy" x1="0" y1="0" x2="0" y2="1">
      <stop offset="0%" stop-color="#f3f4f6"/>
      <stop offset="100%" stop-color="#e5e7eb"/>
    </linearGradient>
  </defs>
  <style>
    text {
      font-family: 'Segoe UI', system-ui, -apple-system, sans-serif;
      font-size: 14px;
      fill: #1a202c;
    }
    .title { font-weight: 600; font-size: 16px; }
    .small { font-size: 12px; }
    .subtitle { font-size: 13px; fill: #64748b; }
    .mono { font-family: 'Consolas', 'DejaVu Sans Mono', monospace; font-size: 12px; }

    .cluster { fill: #f8fafc; stroke: #94a3b8; stroke-width: 1.5; stroke-dasharray: 6 3; }
    .service { fill: url(#grad-service); stroke: #0f766e; stroke-width: 2.0; filter: url(#shadow); }
    .storage { fill: url(#grad-storage); stroke: #2563eb; stroke-width: 2.0; filter: url(#shadow); }
    .event   { fill: url(#grad-event);   stroke: #ca8a04;   stroke-width: 2.0; filter: url(#shadow); }
    .success { fill: url(#grad-success); stroke: #16a34a; stroke-width: 2.0; filter: url(#shadow); }
    .danger  { fill: url(#grad-danger);  stroke: #dc2626;  stroke-width: 2.0; filter: url(#shadow); }
    .warning { fill: url(#grad-warning); stroke: #ea580c; stroke-width: 2.0; filter: url(#shadow); }
    .info    { fill: url(#grad-info);    stroke: #3b82f6;    stroke-width: 2.0; filter: url(#shadow); }
    .highlight { fill: url(#grad-highlight); stroke: #7c3aed; stroke-width: 2.0; filter: url(#shadow); }
    .legacy  { fill: url(#grad-legacy);  stroke: #9ca3af;  stroke-width: 1.5; filter: url(#shadow); }
    .note    { fill: #ffffff;    stroke: #cbd5e1;   stroke-width: 1.5; filter: url(#shadow); }
    .step    { fill: #ffffff;    stroke: #94a3b8;         stroke-width: 1.5; filter: url(#shadow); }

    .service-flat { fill: #e6f4f3; stroke: #0f766e; stroke-width: 1.5; }
    .storage-flat { fill: #dbeafe; stroke: #2563eb; stroke-width: 1.5; }
    .event-flat   { fill: #fef9c3;   stroke: #ca8a04;   stroke-width: 1.5; }

    .arrow {
      stroke: #64748b; stroke-width: 1.5; fill: none;
      marker-end: url(#arrowhead);
    }
    .arrow-dashed {
      stroke: #64748b; stroke-width: 1.5; fill: none;
      stroke-dasharray: 6 3; marker-end: url(#arrowhead);
    }
    .arrow-danger {
      stroke: #dc2626; stroke-width: 2.0; fill: none;
      marker-end: url(#arrowhead-danger);
    }
    .arrow-bg { fill: #ffffff; opacity: 0.92; }
    .lifeline {
      stroke: #94a3b8; stroke-width: 1.0;
      stroke-dasharray: 4 3; fill: none;
    }
    .separator {
      stroke: #cbd5e1; stroke-width: 1.0;
    }
  </style>
  <text x="480" y="25" text-anchor="middle" class="title">Erl's Service-Oriented Analysis — LMS</text>
  <rect x="30" y="50" width="430" height="210" rx="12" class="cluster" />
  <text x="245.0" y="78" text-anchor="middle" class="title">Buoc 1: Automation Candidates</text>
  <line x1="44" y1="88" x2="446" y2="88" class="separator" />
  <rect x="60" y="90" width="190" height="56" rx="12" class="info" />
  <text x="155.0" y="123.0" text-anchor="middle" class="title">Xac thuc nguoi dung</text>
  <rect x="270" y="90" width="190" height="56" rx="12" class="service" />
  <text x="365.0" y="123.0" text-anchor="middle" class="title">Quan ly cau hoi SQL</text>
  <rect x="60" y="145" width="190" height="56" rx="12" class="event" />
  <text x="155.0" y="178.0" text-anchor="middle" class="title">Cham bai tu dong</text>
  <rect x="270" y="145" width="190" height="56" rx="12" class="highlight" />
  <text x="365.0" y="178.0" text-anchor="middle" class="title">Quan ly bai tap/khoa hoc</text>
  <rect x="60" y="200" width="190" height="56" rx="12" class="warning" />
  <text x="155.0" y="233.0" text-anchor="middle" class="title">Thong bao ket qua</text>
  <rect x="500" y="50" width="430" height="210" rx="12" class="cluster" />
  <text x="715.0" y="78" text-anchor="middle" class="title">Buoc 2: Service Layers</text>
  <line x1="514" y1="88" x2="916" y2="88" class="separator" />
  <rect x="520" y="90" width="180" height="56" rx="12" class="event" />
  <text x="610.0" y="114.0" text-anchor="middle" class="title">Task: Submission</text>
  <text x="610.0" y="132.0" text-anchor="middle" class="subtitle">Orchestrator</text>
  <rect x="520" y="135" width="170" height="56" rx="12" class="info" />
  <text x="605.0" y="168.0" text-anchor="middle" class="title">Entity: User</text>
  <rect x="520" y="180" width="170" height="56" rx="12" class="service" />
  <text x="605.0" y="213.0" text-anchor="middle" class="title">Entity: Question</text>
  <rect x="520" y="225" width="170" height="56" rx="12" class="highlight" />
  <text x="605.0" y="258.0" text-anchor="middle" class="title">Entity: Course</text>
  <rect x="720" y="90" width="170" height="56" rx="12" class="info" />
  <text x="805.0" y="123.0" text-anchor="middle" class="title">Utility: Auth</text>
  <rect x="720" y="135" width="170" height="56" rx="12" class="warning" />
  <text x="805.0" y="168.0" text-anchor="middle" class="title">Utility: Notification</text>
  <rect x="720" y="180" width="180" height="56" rx="12" class="event" />
  <text x="810.0" y="204.0" text-anchor="middle" class="title">Complicated: Judge</text>
  <text x="810.0" y="222.0" text-anchor="middle" class="subtitle">Sandbox</text>
  <path d="M 460 155 L 500 155" class="arrow" />
  <rect x="30" y="290" width="900" height="220" rx="12" class="note" />
  <text x="480" y="315" text-anchor="middle" class="title">Kết quả: Ánh xạ sang Bounded Contexts</text>
  <rect x="60" y="345" width="180" height="32" rx="6" class="info" />
  <text x="150" y="366" text-anchor="middle" class="small">Identity &amp; Access</text>
  <text x="260" y="366" class="title">=</text>
  <text x="290" y="366" class="small">Auth Service</text>
  <text x="500" y="366" class="subtitle">Utility Auth</text>
  <rect x="60" y="385" width="180" height="32" rx="6" class="service" />
  <text x="150" y="406" text-anchor="middle" class="small">SQL Practice</text>
  <text x="260" y="406" class="title">=</text>
  <text x="290" y="406" class="small">Core Service</text>
  <text x="500" y="406" class="subtitle">Entity Question + Task Orchestrator</text>
  <rect x="60" y="425" width="180" height="32" rx="6" class="event" />
  <text x="150" y="446" text-anchor="middle" class="small">Evaluation</text>
  <text x="260" y="446" class="title">=</text>
  <text x="290" y="446" class="small">Judge Service</text>
  <text x="500" y="446" class="subtitle">Complicated Subsystem</text>
  <rect x="60" y="465" width="180" height="32" rx="6" class="highlight" />
  <text x="150" y="486" text-anchor="middle" class="small">Academic</text>
  <text x="260" y="486" class="title">=</text>
  <text x="290" y="486" class="small">Assignment Service</text>
  <text x="500" y="486" class="subtitle">Entity Course</text>
</svg>