<svg xmlns="http://www.w3.org/2000/svg" viewBox="0 0 960 540" width="100%" height="100%">
  <defs>
    <marker id="arrowhead" markerWidth="10" markerHeight="7" refX="9" refY="3.5" orient="auto">
      <polygon points="0 0, 10 3.5, 0 7" fill="#64748b" />
    </marker>
    <marker id="arrowhead-both" markerWidth="10" markerHeight="7" refX="1" refY="3.5" orient="auto">
      <polygon points="10 0, 0 3.5, 10 7" fill="#64748b" />
    </marker>
      <filter id="shadow" x="-4%" y="-4%" width="108%" height="116%">
      <feDropShadow dx="1" dy="2" stdDeviation="2.5" flood-color="#0000001a"/>
    </filter>
    <linearGradient id="grad-service" x1="0" y1="0" x2="0" y2="1">
      <stop offset="0%" stop-color="#e6f4f3"/>
      <stop offset="100%" stop-color="#ccebe8"/>
    </linearGradient>
    <linearGradient id="grad-storage" x1="0" y1="0" x2="0" y2="1">
      <stop offset="0%" stop-color="#dbeafe"/>
      <stop offset="100%" stop-color="#bfdbfe"/>
    </linearGradient>
    <linearGradient id="grad-event" x1="0" y1="0" x2="0" y2="1">
      <stop offset="0%" stop-color="#fef9c3"/>
      <stop offset="100%" stop-color="#fef08a"/>
    </linearGradient>
    <linearGradient id="grad-success" x1="0" y1="0" x2="0" y2="1">
      <stop offset="0%" stop-color="#dcfce7"/>
      <stop offset="100%" stop-color="#bbf7d0"/>
    </linearGradient>
    <linearGradient id="grad-danger" x1="0" y1="0" x2="0" y2="1">
      <stop offset="0%" stop-color="#fee2e2"/>
      <stop offset="100%" stop-color="#fecaca"/>
    </linearGradient>
    <linearGradient id="grad-warning" x1="0" y1="0" x2="0" y2="1">
      <stop offset="0%" stop-color="#fff7ed"/>
      <stop offset="100%" stop-color="#ffedd5"/>
    </linearGradient>
    <linearGradient id="grad-info" x1="0" y1="0" x2="0" y2="1">
      <stop offset="0%" stop-color="#eff6ff"/>
      <stop offset="100%" stop-color="#dbeafe"/>
    </linearGradient>
    <linearGradient id="grad-highlight" x1="0" y1="0" x2="0" y2="1">
      <stop offset="0%" stop-color="#f5f3ff"/>
      <stop offset="100%" stop-color="#ede9fe"/>
    </linearGradient>
    <linearGradient id="grad-legacy" x1="0" y1="0" x2="0" y2="1">
      <stop offset="0%" stop-color="#f3f4f6"/>
      <stop offset="100%" stop-color="#e5e7eb"/>
    </linearGradient>
  </defs>
  <style>
    text { font-family: 'Segoe UI', system-ui, -apple-system, sans-serif; font-size: 14px; fill: #1a202c; }
    .title { font-weight: 600; font-size: 16px; }
    .subtitle { font-size: 13px; fill: #64748b; }
    .cluster { fill: #f8fafc; stroke: #94a3b8; stroke-width: 1.5; stroke-dasharray: 6 3; }
    .service { fill: url(#grad-service); stroke: #0f766e; stroke-width: 2.0; filter: url(#shadow); }
    .gateway { fill: #FFF9C4; stroke: #ca8a04; stroke-width: 1.5; }
    .eureka { fill: #E8F5E9; stroke: #16a34a; stroke-width: 1.5; }
    .client { fill: #f0fdf4; stroke: #16a34a; stroke-width: 1.5; }
    .note    { fill: #ffffff;    stroke: #cbd5e1;   stroke-width: 1.5; filter: url(#shadow); }
    .arrow { stroke: #64748b; stroke-width: 1.5; fill: none; marker-end: url(#arrowhead); }
    .arrow-both { stroke: #64748b; stroke-width: 1.5; fill: none; marker-end: url(#arrowhead); marker-start: url(#arrowhead-both); }
    .arrow-label { font-size: 12px; fill: #475569; text-anchor: middle; }
    .arrow-bg { fill: #ffffff; opacity: 0.9; }
  </style>
  <rect x="50" y="150" width="260" height="200" rx="16" class="cluster" />
  <rect x="50" y="150" width="260" height="200" rx="16" fill="#E8F5E9" opacity="0.4" />
  <text x="180" y="185" text-anchor="middle" class="title">Phase 1: Resilience</text>
  <text x="180" y="205" text-anchor="middle" class="subtitle">(effort thấp)</text>
  <rect x="70" y="230" width="220" height="100" rx="8" class="note" />
  <text x="180" y="260" text-anchor="middle" class="">+ Circuit Breaker</text>
  <text x="180" y="285" text-anchor="middle" class="">+ Retry + Timeout</text>
  <text x="180" y="310" text-anchor="middle" class="">+ Fallback message</text>
  <rect x="350" y="150" width="260" height="200" rx="16" class="cluster" />
  <rect x="350" y="150" width="260" height="200" rx="16" fill="#FFF9C4" opacity="0.4" />
  <text x="480" y="185" text-anchor="middle" class="title">Phase 2: Ownership</text>
  <text x="480" y="205" text-anchor="middle" class="subtitle">(effort TB)</text>
  <rect x="370" y="230" width="220" height="100" rx="8" class="note" />
  <text x="480" y="260" text-anchor="middle" class="">Hợp nhất SQL executor</text>
  <text x="480" y="285" text-anchor="middle" class="">về Judge Service</text>
  <text x="480" y="310" text-anchor="middle" class="">(single ownership)</text>
  <rect x="650" y="150" width="260" height="200" rx="16" class="cluster" />
  <rect x="650" y="150" width="260" height="200" rx="16" fill="#E3F2FD" opacity="0.4" />
  <text x="780" y="185" text-anchor="middle" class="title">Phase 3: Async</text>
  <text x="780" y="205" text-anchor="middle" class="subtitle">(effort cao)</text>
  <rect x="670" y="230" width="220" height="100" rx="8" class="note" />
  <text x="780" y="260" text-anchor="middle" class="">Submit → Kafka</text>
  <text x="780" y="285" text-anchor="middle" class="">→ Judge → Result event</text>
  <text x="780" y="310" text-anchor="middle" class="">(non-blocking)</text>
  <path d="M 310 250 L 350 250" class="arrow" />
  <path d="M 610 250 L 650 250" class="arrow" />
</svg>